<?xml version="1.0" standalone="no"?>
<!DOCTYPE svg PUBLIC "-//W3C//DTD SVG 20010904//EN"
 "http://www.w3.org/TR/2001/REC-SVG-20010904/DTD/svg10.dtd">
<svg version="1.0" xmlns="http://www.w3.org/2000/svg"
 width="640.000000pt" height="151.000000pt" viewBox="0 0 640.000000 151.000000"
 preserveAspectRatio="xMidYMid meet">

<g transform="translate(0.000000,151.000000) scale(0.100000,-0.100000)"
fill="#000000" stroke="none">
<path d="M3190 1030 c0 -22 5 -40 10 -40 6 0 10 18 10 40 0 22 -4 40 -10 40
-5 0 -10 -18 -10 -40z"/>
<path d="M477 996 c-26 -7 -59 -24 -73 -37 -50 -46 -54 -66 -54 -249 0 -270 9
-279 283 -280 133 0 171 3 183 14 11 11 14 47 14 155 l0 141 -81 0 c-56 0 -85
-4 -95 -14 -16 -17 -20 -116 -4 -116 6 0 10 -4 10 -10 0 -16 -96 -12 -109 4
-8 9 -11 52 -9 126 l3 113 100 -2 c127 -3 138 5 133 100 l-3 64 -125 2 c-78 1
-143 -3 -173 -11z"/>
<path d="M1022 992 c-12 -10 -42 -72 -68 -138 l-48 -119 -4 -152 -4 -153 81 0
c71 0 82 2 95 22 10 14 16 44 16 75 0 29 5 53 10 53 6 0 10 -4 10 -10 0 -5 23
-10 50 -10 l50 0 0 -65 0 -65 81 0 c113 0 111 -3 107 173 l-3 142 -48 125
c-27 68 -54 128 -60 132 -7 4 -64 8 -128 8 -98 0 -119 -3 -137 -18z m158 -223
c0 -9 9 -19 20 -22 43 -11 19 -27 -40 -27 -41 0 -60 4 -60 13 0 16 27 104 37
120 7 12 42 -55 43 -84z"/>
<path d="M1502 990 c-22 -18 -22 -19 -20 -287 l3 -268 78 -3 c108 -4 107 -6
107 168 0 92 4 139 10 135 6 -3 10 -21 10 -38 0 -48 24 -77 65 -77 38 0 61 19
102 85 13 22 21 31 16 20 -4 -11 -8 -81 -8 -155 l0 -135 80 -3 c120 -4 115
-16 115 290 0 153 -4 257 -10 269 -9 16 -22 19 -83 19 -53 -1 -77 -5 -93 -18
-19 -16 -67 -99 -78 -134 -9 -29 -24 -21 -52 30 -15 26 -37 64 -51 85 l-23 37
-73 0 c-56 -1 -77 -5 -95 -20z"/>
<path d="M2167 992 c-15 -16 -17 -50 -17 -290 l0 -272 201 0 c160 0 203 3 215
14 9 10 14 37 14 80 l0 66 -120 0 -120 0 0 35 c0 19 5 35 10 35 6 0 10 -4 10
-10 0 -6 28 -10 63 -10 84 0 99 15 95 96 l-3 59 -87 3 -88 3 0 29 c0 17 5 30
10 30 6 0 10 -4 10 -10 0 -6 38 -10 93 -10 119 0 129 8 125 101 l-3 64 -196 3
c-180 2 -197 1 -212 -16z"/>
<path d="M3832 964 c-21 -14 -22 -23 -22 -130 0 -113 1 -118 45 -232 25 -64
51 -122 57 -129 7 -9 41 -13 113 -13 83 0 107 3 124 18 11 9 41 70 66 134 44
115 45 118 45 236 0 136 2 132 -83 132 -81 -1 -87 -9 -87 -132 0 -69 -5 -121
-15 -148 -8 -24 -14 -50 -13 -59 2 -8 -4 -17 -13 -19 -31 -6 -59 105 -59 234
0 93 -3 113 -16 118 -31 12 -120 6 -142 -10z"/>
<path d="M4351 963 c-21 -18 -21 -23 -19 -258 l3 -240 170 -3 c210 -3 215 -1
215 79 0 43 -4 58 -16 63 -9 3 -58 6 -110 6 l-94 0 0 30 c0 17 5 30 10 30 6 0
10 -4 10 -10 0 -15 102 -12 123 4 13 10 17 28 17 70 l0 56 -80 0 c-78 0 -80 1
-80 24 0 14 5 28 10 31 6 3 10 1 10 -4 0 -16 161 -13 183 3 23 18 25 121 1
130 -9 3 -87 6 -174 6 -135 0 -161 -2 -179 -17z"/>
<path d="M4812 968 l-22 -11 2 -246 3 -246 60 -3 c34 -2 69 2 82 9 21 11 23
19 23 91 0 45 4 78 10 78 6 0 10 -4 10 -9 0 -6 19 -11 43 -13 l42 -3 5 -75 5
-75 68 -3 c93 -4 97 1 97 126 0 85 -3 103 -21 126 -11 14 -27 26 -35 26 -17 0
-17 1 1 36 20 39 19 101 -3 144 -14 28 -26 37 -62 47 -57 15 -278 15 -308 1z
m205 -142 c6 -6 13 -22 15 -36 3 -22 -1 -25 -34 -28 l-38 -3 0 46 c0 43 1 46
23 40 12 -4 27 -12 34 -19z"/>
<path d="M5404 969 c-25 -6 -53 -23 -73 -43 -29 -30 -34 -43 -38 -99 -6 -74 9
-131 40 -152 12 -7 51 -19 87 -25 107 -18 120 -21 120 -31 0 -5 -46 -9 -103
-9 -127 0 -147 -10 -147 -75 0 -77 -4 -75 149 -75 124 0 142 2 182 23 56 29
79 73 79 148 0 115 -25 141 -154 160 -59 9 -76 15 -76 28 0 14 12 16 88 13
107 -5 114 1 110 85 l-3 58 -110 2 c-60 0 -128 -3 -151 -8z"/>
<path d="M5782 968 l-22 -11 2 -246 3 -246 174 -3 c206 -3 211 -1 211 83 0 39
-4 54 -16 59 -9 3 -58 6 -110 6 l-94 0 0 30 c0 17 5 30 10 30 6 0 10 -4 10
-10 0 -15 102 -12 123 4 13 10 17 28 17 70 l0 56 -80 0 -80 0 0 30 c0 17 5 30
10 30 6 0 10 -4 10 -10 0 -6 34 -10 83 -10 102 0 117 11 117 87 0 37 -4 53
-16 57 -28 11 -328 5 -352 -6z"/>
<path d="M3180 940 c0 -23 4 -30 20 -30 16 0 20 7 20 30 0 23 -4 30 -20 30
-16 0 -20 -7 -20 -30z"/>
<path d="M2945 911 c-71 -18 -113 -53 -129 -111 -6 -20 -2 -17 18 12 32 45 91
78 141 78 25 0 35 4 33 13 -6 15 -24 17 -63 8z"/>
<path d="M3397 914 c-16 -16 -5 -24 31 -24 47 0 110 -36 139 -79 28 -41 31
-19 3 26 -28 47 -149 101 -173 77z"/>
<path d="M3085 888 c-4 -9 -5 -40 -3 -69 l3 -54 115 0 115 0 3 63 3 62 -54 0
c-30 0 -82 3 -115 6 -50 6 -63 4 -67 -8z"/>
<path d="M3020 855 c0 -8 5 -15 10 -15 6 0 10 7 10 15 0 8 -4 15 -10 15 -5 0
-10 -7 -10 -15z"/>
<path d="M3360 855 c0 -8 5 -15 10 -15 6 0 10 7 10 15 0 8 -4 15 -10 15 -5 0
-10 -7 -10 -15z"/>
<path d="M2922 808 c2 -13 10 -23 18 -23 8 0 16 10 18 23 3 17 -2 22 -18 22
-16 0 -21 -5 -18 -22z"/>
<path d="M3442 813 c2 -10 10 -18 18 -18 8 0 16 8 18 18 2 12 -3 17 -18 17
-15 0 -20 -5 -18 -17z"/>
<path d="M3389 774 c-11 -13 -10 -17 2 -25 20 -12 26 -11 32 5 9 23 -18 39
-34 20z"/>
<path d="M3501 781 c-15 -10 -8 -41 9 -41 15 0 25 29 14 40 -5 5 -15 5 -23 1z"/>
<path d="M2870 765 c0 -21 27 -30 45 -15 19 16 10 30 -21 30 -15 0 -24 -6 -24
-15z"/>
<path d="M2962 763 c2 -10 12 -18 23 -18 11 0 21 8 23 18 3 13 -3 17 -23 17
-20 0 -26 -4 -23 -17z"/>
<path d="M2932 738 c-18 -18 -14 -38 8 -38 13 0 20 7 20 19 0 25 -13 34 -28
19z"/>
<path d="M2795 639 c-32 -115 -35 -156 -16 -192 14 -26 50 -47 81 -47 24 0 77
44 95 81 23 44 18 46 -22 7 -44 -41 -79 -62 -93 -53 -6 3 -10 30 -11 58 l-1
52 -16 -35 c-15 -33 -16 -34 -19 -10 -2 14 8 65 21 113 15 56 22 97 17 110 -6
15 -15 -5 -36 -84z"/>
<path d="M3443 724 c-8 -21 13 -42 28 -27 13 13 5 43 -11 43 -6 0 -13 -7 -17
-16z"/>
<path d="M3014 704 c-22 -33 -10 -72 29 -94 24 -13 30 -13 55 0 33 19 43 78
17 104 -26 26 -81 21 -101 -10z m77 6 c27 -15 26 -66 -2 -80 -16 -9 -26 -8
-45 5 -28 18 -31 41 -7 67 19 21 27 22 54 8z"/>
<path d="M3043 684 c-3 -8 2 -23 11 -32 16 -16 18 -16 31 2 11 14 12 23 4 33
-15 18 -38 16 -46 -3z"/>
<path d="M3286 714 c-36 -35 -5 -114 44 -114 26 0 70 43 70 67 0 10 -7 29 -16
41 -18 26 -74 30 -98 6z m76 -11 c24 -21 23 -45 -2 -68 -30 -27 -70 -7 -70 34
0 45 39 64 72 34z"/>
<path d="M3307 687 c-3 -9 0 -22 6 -32 17 -22 49 -9 45 19 -4 25 -43 34 -51
13z"/>
<path d="M3570 704 c0 -16 9 -61 20 -99 11 -38 20 -83 20 -100 l-1 -30 -19 35
-18 35 1 -47 c3 -82 -27 -85 -105 -10 -39 37 -46 37 -27 -1 48 -94 144 -113
184 -37 20 40 19 59 -12 170 -28 103 -43 132 -43 84z"/>
<path d="M3191 660 c-16 -9 -6 -30 15 -30 15 0 20 25 6 34 -4 2 -14 1 -21 -4z"/>
<path d="M3044 566 c-23 -10 -36 -27 -54 -70 -12 -31 -37 -69 -56 -86 -20 -17
-29 -30 -20 -30 27 0 74 50 92 98 10 26 22 53 27 60 7 9 53 12 167 12 173 0
168 1 191 -65 15 -43 71 -105 94 -105 10 0 3 11 -16 28 -18 16 -46 58 -63 93
-23 47 -38 66 -56 70 -48 13 -273 9 -306 -5z"/>
</g>
</svg>
